<?xml version="1.0" encoding="utf-8"?>
<!-- Generator: Adobe Illustrator 27.0.1, SVG Export Plug-In . SVG Version: 6.00 Build 0)  -->
<svg version="1.2" baseProfile="tiny" id="Layer_1" xmlns="http://www.w3.org/2000/svg" xmlns:xlink="http://www.w3.org/1999/xlink"
	 x="0px" y="0px" viewBox="0 0 128 128" overflow="visible" xml:space="preserve">
<g>
	<rect x="-10.8" y="-10.7" fill="#4A8AF4" width="150" height="150"/>
	<g>
		<g>
			<path fill="#FFFFFF" d="M64.7,49.9c-8.9,0-16.1-7.2-16.1-16.1s7.2-16.1,16.1-16.1s16.1,7.2,16.1,16.1S73.5,49.9,64.7,49.9z
				 M64.7,18.9c-8.2,0-14.9,6.7-14.9,14.9s6.7,14.9,14.9,14.9S79.5,42,79.5,33.8S72.9,18.9,64.7,18.9z"/>
		</g>
		<g>
			<g>
				<path fill="#FFFFFF" d="M68,42.6c-0.6,0-1.1-0.5-1.1-1c0-0.6,0.5-1.1,1.1-1.1c0.6,0,1.1,0.5,1.1,1.1
					C69.1,42.1,68.6,42.6,68,42.6z"/>
			</g>
			<g>
				<path fill="#FFFFFF" d="M61.3,42.6c-0.6,0-1.1-0.5-1.1-1.1c0-0.6,0.5-1.1,1.1-1.1c0.6,0,1.1,0.5,1.1,1.1
					C62.4,42.1,61.9,42.6,61.3,42.6z"/>
			</g>
			<g>
				<path fill="#FFFFFF" d="M72.2,42.6c0-1.3-0.3-2.6-0.9-3.7c-1.6-2.8-4.7-4.4-8.1-3.7c-3.5,0.7-6,3.8-6,7.4c0,0.7,0,1.4,0,2l0,2.7
					c2.2,1.2,4.8,2,7.5,2c2.7,0,5.3-0.7,7.5-1.9l0-2.7C72.2,44,72.2,43.3,72.2,42.6z M61.5,44.1c-0.2,0-0.4-0.1-0.6-0.1
					c-0.8-0.2-1.3-0.8-1.4-1.6c-0.3-2.5,1.2-4.2,3.4-4.8c1.6-0.4,3.2-0.3,4.7,0.5c1.3,0.7,2,1.8,2.2,3.2c0,0.4,0,0.9-0.1,1.3
					c-0.2,0.7-0.6,1.3-1.3,1.5L61.5,44.1z"/>
			</g>
		</g>
		<g>
			<g>
				<path fill="#FFFFFF" d="M64.6,35.8c-0.6,0-0.5,0-0.5-0.6c0-0.1,0-1.6,0-1.7c0-0.2-0.1-0.4-0.2-0.5c-0.5-0.4-0.7-1-0.5-1.5
					c0.2-0.6,0.7-0.9,1.3-0.9c0.6,0,1,0.4,1.2,1c0.2,0.5,0,1.1-0.5,1.4c-0.2,0.1-0.2,0.2-0.2,0.4c0,0.2,0,1.7,0,1.9
					c0,0.2-0.1,0.4-0.3,0.3C64.8,35.8,64.7,35.8,64.6,35.8z"/>
			</g>
			<g>
				<path fill="#FFFFFF" d="M60,37.2c-0.5,0.3-0.4,0.3-0.8-0.2c0-0.1-0.8-1.3-0.9-1.4c-0.1-0.2-0.2-0.3-0.5-0.3
					c-0.6,0-1.1-0.5-1.2-1c-0.1-0.6,0.1-1.1,0.7-1.4c0.5-0.3,1.1-0.2,1.5,0.2c0.4,0.4,0.6,1,0.3,1.5c-0.1,0.2-0.1,0.3,0,0.5
					c0.1,0.1,0.9,1.5,1,1.6c0.1,0.2,0.1,0.3-0.1,0.5C60.2,37.1,60.1,37.1,60,37.2z"/>
			</g>
			<g>
				<path fill="#FFFFFF" d="M69.3,37.2c0.5,0.3,0.4,0.3,0.8-0.2c0-0.1,0.8-1.3,0.9-1.4c0.1-0.2,0.2-0.3,0.5-0.3c0.6,0,1.1-0.5,1.2-1
					c0.1-0.6-0.1-1.1-0.7-1.4c-0.5-0.3-1.1-0.2-1.5,0.2c-0.4,0.4-0.6,1-0.3,1.5c0.1,0.2,0.1,0.3,0,0.5c-0.1,0.1-0.9,1.5-1,1.6
					c-0.1,0.2-0.1,0.3,0.1,0.5C69.1,37.1,69.2,37.1,69.3,37.2z"/>
			</g>
		</g>
		<g>
			<path fill="#FFFFFF" d="M64.6,28.9c-2.1,0-3.8-1.7-3.8-3.8s1.7-3.8,3.8-3.8c2.1,0,3.8,1.7,3.8,3.8S66.7,28.9,64.6,28.9z
				 M64.6,22.8c-1.3,0-2.3,1-2.3,2.3s1,2.3,2.3,2.3c1.3,0,2.3-1,2.3-2.3S65.8,22.8,64.6,22.8z"/>
		</g>
		<g>
			<path fill="#FFFFFF" d="M55.3,32c-1.4,0-2.6-1.2-2.6-2.6c0-1.4,1.2-2.6,2.6-2.6c1.4,0,2.6,1.2,2.6,2.6C58,30.8,56.8,32,55.3,32z
				 M55.3,28c-0.8,0-1.4,0.6-1.4,1.4c0,0.8,0.6,1.4,1.4,1.4s1.4-0.6,1.4-1.4C56.7,28.6,56.1,28,55.3,28z"/>
		</g>
		<g>
			<path fill="#FFFFFF" d="M74.2,32c-1.4,0-2.6-1.2-2.6-2.6c0-1.4,1.2-2.6,2.6-2.6s2.6,1.2,2.6,2.6C76.8,30.8,75.6,32,74.2,32z
				 M74.2,28c-0.8,0-1.4,0.6-1.4,1.4c0,0.8,0.6,1.4,1.4,1.4s1.4-0.6,1.4-1.4C75.6,28.6,75,28,74.2,28z"/>
		</g>
	</g>
	<g>
		<path fill="#3D4F9B" d="M23.1,59.5c0,0,0.3,0,0.4,0.3l2.3,8.1c0.1,0.4-0.3,0.4-0.3,0.4h-0.6c-0.1,0-0.3-0.1-0.4-0.3l-0.8-2.8h-2.2
			l-0.8,2.8c-0.1,0.2-0.2,0.3-0.3,0.3h-0.6c0,0-0.4,0-0.3-0.4l2.3-8.1c0.1-0.3,0.4-0.3,0.4-0.3H23.1z M22.6,60.8l-0.8,3.2h1.6
			L22.6,60.8L22.6,60.8z"/>
		<path fill="#3D4F9B" d="M27.4,59.5c0,0,0.4,0,0.4,0.4v5.3c0,1.5,0.4,2,1.4,2c0.9,0,1.4-0.5,1.4-2v-5.3c0-0.4,0.4-0.4,0.4-0.4h0.5
			c0,0,0.4,0,0.4,0.4v5.2c0,1.7-0.7,3.3-2.6,3.3c-1.8,0-2.6-1.5-2.6-3.3v-5.2c0-0.4,0.4-0.4,0.4-0.4H27.4z"/>
		<path fill="#3D4F9B" d="M37.7,59.5c0.4,0,0.4,0.4,0.4,0.4v0.5c0,0,0,0.4-0.4,0.4H36v7.2c0,0.4-0.3,0.4-0.3,0.4h-0.5
			c0,0-0.4,0-0.4-0.4v-7.2h-1.6c-0.4,0-0.4-0.3-0.4-0.3v-0.5c0,0,0-0.4,0.4-0.4H37.7z"/>
		<path fill="#3D4F9B" d="M44,62.2v3.2c0,1.6-0.7,2.8-2.6,2.8c-1.9,0-2.6-1.3-2.6-2.8v-3.2c0-1.6,0.7-2.9,2.6-2.9
			C43.3,59.4,44,60.7,44,62.2z M40,62.2v3.2c0,1.2,0.5,1.7,1.4,1.7c0.9,0,1.4-0.5,1.4-1.7v-3.2c0-1.2-0.5-1.7-1.4-1.7
			C40.6,60.6,40,61.1,40,62.2z"/>
		<path fill="#3D4F9B" d="M50.4,59.5c1.9,0,2.6,1.1,2.6,2.7v0.3c0,1.6-0.8,2.7-2.6,2.7h-0.9v2.7c0,0.4-0.4,0.4-0.4,0.4h-0.5
			c0,0-0.4,0-0.4-0.4v-8.4H50.4z M49.5,64h0.9c0.9,0,1.4-0.4,1.4-1.5v-0.3c0-1.1-0.6-1.6-1.4-1.6h-0.9V64z"/>
		<path fill="#3D4F9B" d="M54.9,59.5c0,0,0.4,0,0.4,0.4v5.3c0,1.5,0.4,2,1.4,2c0.9,0,1.4-0.5,1.4-2v-5.3c0-0.4,0.4-0.4,0.4-0.4h0.5
			c0,0,0.4,0,0.4,0.4v5.2c0,1.7-0.7,3.3-2.6,3.3c-1.8,0-2.6-1.5-2.6-3.3v-5.2c0-0.4,0.4-0.4,0.4-0.4H54.9z"/>
		<path fill="#3D4F9B" d="M63,59.5c1.8,0,2.5,1,2.5,2.4c0,0.8-0.4,1.4-0.8,1.7c0.7,0.4,1,1.2,1,2c0,1.3-0.8,2.7-2.6,2.7h-2.3v-8.8
			H63z M62,63.1h0.8c1,0,1.5-0.4,1.5-1.2c0-0.8-0.4-1.2-1.3-1.2h-1V63.1z M62,67.1h1.1c0.9,0,1.4-0.5,1.4-1.5c0-1.2-0.7-1.4-1.5-1.4
			h-1V67.1z"/>
		<path fill="#3D4F9B" d="M68.1,59.5c0,0,0.4,0,0.4,0.4V67H71c0.4,0,0.4,0.4,0.4,0.4v0.5c0,0,0,0.4-0.4,0.4h-3.7v-8.4
			c0-0.4,0.4-0.4,0.4-0.4H68.1z"/>
		<path fill="#3D4F9B" d="M73.5,59.5c0,0,0.4,0,0.4,0.4v8c0,0.4-0.4,0.4-0.4,0.4H73c0,0-0.4,0-0.4-0.4v-8c0-0.4,0.4-0.4,0.4-0.4
			H73.5z"/>
		<path fill="#3D4F9B" d="M80,61.4c0,0.2,0,0.4-0.3,0.4L79.3,62c-0.2,0.1-0.5,0-0.5-0.3c-0.2-0.8-0.6-1.1-1.3-1.1
			c-1,0-1.3,0.6-1.3,1.1c0,0.4,0.1,0.8,0.5,1l2.2,1.1c0.8,0.4,1.2,1.2,1.2,2c0,1.4-1,2.5-2.6,2.5c-1,0-2.6-0.6-2.6-2.6
			c0-0.4,0.4-0.4,0.4-0.4h0.5c0,0,0.4,0,0.4,0.4c0,1.1,0.7,1.4,1.4,1.4c1,0,1.4-0.7,1.4-1.3c0-0.4-0.2-0.8-0.8-1.1l-1.8-0.9
			c-1.2-0.6-1.3-1.5-1.3-2.2c0-1.4,1.1-2.2,2.5-2.2C79,59.4,79.8,60.3,80,61.4z"/>
		<path fill="#3D4F9B" d="M82.3,59.5c0,0,0.4,0,0.4,0.4v3.3h2.8v-3.3c0-0.4,0.4-0.4,0.4-0.4h0.5c0,0,0.4,0,0.4,0.4v8
			c0,0.4-0.4,0.4-0.4,0.4h-0.5c0,0-0.4,0-0.4-0.4v-3.6h-2.8v3.6c0,0.4-0.4,0.4-0.4,0.4h-0.5c0,0-0.4,0-0.4-0.4v-8
			c0-0.4,0.4-0.4,0.4-0.4H82.3z"/>
		<path fill="#3D4F9B" d="M95.3,59.5c0.4,0,0.4,0.4,0.4,0.4v0.5c0,0,0,0.3-0.4,0.3h-3v2.6h2.1c0.4,0,0.4,0.4,0.4,0.4v0.5
			c0,0,0,0.3-0.4,0.3h-2.1v3.5c0,0.3-0.4,0.3-0.4,0.3h-0.5c0,0-0.4,0-0.4-0.4v-8.4H95.3z"/>
		<path fill="#3D4F9B" d="M101.6,62.2v3.2c0,1.6-0.7,2.8-2.6,2.8s-2.6-1.3-2.6-2.8v-3.2c0-1.6,0.7-2.9,2.6-2.9
			S101.6,60.7,101.6,62.2z M97.6,62.2v3.2c0,1.2,0.5,1.7,1.4,1.7s1.4-0.5,1.4-1.7v-3.2c0-1.2-0.5-1.7-1.4-1.7S97.6,61.1,97.6,62.2z"
			/>
		<path fill="#3D4F9B" d="M105.5,59.5c1.9,0,2.6,1,2.6,2.6c0,1.4-0.5,2.1-1.5,2.5l0.9,1.9c0.2,0.4,0.4,0.6,0.7,0.6h0.2
			c0.4,0,0.4,0.4,0.4,0.4v0.4c0,0,0,0.4-0.4,0.4h-0.3c-0.8,0-1.2-0.4-1.7-1.4l-1-2.1h-0.9v3.1c0,0.4-0.4,0.4-0.4,0.4h-0.5
			c0,0-0.4,0-0.4-0.4v-8.4H105.5z M104.5,63.6h1c1,0,1.4-0.5,1.4-1.5c0-1.1-0.6-1.4-1.4-1.4h-1V63.6z"/>
		<path fill="#FFFFFF" d="M28.7,80c0,0.2,0,0.6-0.4,0.7l-0.8,0.2c-0.4,0.1-0.7-0.1-0.8-0.4c-0.2-1.2-0.9-1.9-2.2-1.9
			c-1.5,0-2.1,0.8-2.1,2.7v5.3c0,1.9,0.7,2.7,2.3,2.7c1.4,0,2.2-0.8,2.2-2.7v-0.8h-2.5c-0.6,0-0.6-0.6-0.6-0.6v-0.8
			c0,0,0-0.6,0.6-0.6h3.9c0,0,0.6,0,0.6,0.6v2.1c0,2.6-1.1,4.7-4.2,4.7c-2.8,0-4.3-2-4.3-4.7v-5.3c0-2.7,1.3-4.6,4.1-4.6
			C27.3,76.6,28.4,78.2,28.7,80z"/>
		<path fill="#FFFFFF" d="M39.7,81.3v5.3c0,2.6-1.2,4.6-4.2,4.6c-3,0-4.2-2-4.2-4.6v-5.3c0-2.6,1.2-4.7,4.2-4.7
			C38.5,76.6,39.7,78.7,39.7,81.3z M33.2,81.3v5.3c0,1.9,0.9,2.7,2.3,2.7c1.4,0,2.2-0.8,2.2-2.7v-5.3c0-1.9-0.9-2.7-2.2-2.7
			C34.1,78.5,33.2,79.4,33.2,81.3z"/>
		<path fill="#FFFFFF" d="M50.7,81.3v5.3c0,2.6-1.2,4.6-4.2,4.6c-3,0-4.2-2-4.2-4.6v-5.3c0-2.6,1.2-4.7,4.2-4.7
			C49.5,76.6,50.7,78.7,50.7,81.3z M44.2,81.3v5.3c0,1.9,0.9,2.7,2.3,2.7c1.4,0,2.2-0.8,2.2-2.7v-5.3c0-1.9-0.9-2.7-2.2-2.7
			C45.1,78.5,44.2,79.4,44.2,81.3z"/>
		<path fill="#FFFFFF" d="M61.2,80c0,0.2,0,0.6-0.4,0.7L60,80.9c-0.4,0.1-0.7-0.1-0.8-0.4c-0.2-1.2-0.9-1.9-2.2-1.9
			c-1.5,0-2.1,0.8-2.1,2.7v5.3c0,1.9,0.7,2.7,2.3,2.7c1.4,0,2.2-0.8,2.2-2.7v-0.8H57c-0.6,0-0.6-0.6-0.6-0.6v-0.8c0,0,0-0.6,0.6-0.6
			h3.9c0,0,0.6,0,0.6,0.6v2.1c0,2.6-1.1,4.7-4.2,4.7c-2.8,0-4.3-2-4.3-4.7v-5.3c0-2.7,1.3-4.6,4.1-4.6C59.8,76.6,60.9,78.2,61.2,80z
			"/>
		<path fill="#FFFFFF" d="M65.3,76.8c0,0,0.6,0,0.6,0.6v11.8H70c0.6,0,0.6,0.6,0.6,0.6v0.8c0,0,0,0.6-0.6,0.6h-6V77.3
			c0-0.6,0.6-0.6,0.6-0.6H65.3z"/>
		<path fill="#FFFFFF" d="M79.9,76.8c0.6,0,0.6,0.6,0.6,0.6v0.8c0,0,0,0.6-0.6,0.6h-5.2v4.2h3.9c0.6,0,0.6,0.6,0.6,0.6v0.8
			c0,0,0,0.6-0.6,0.6h-3.9v4.3h5.2c0.6,0,0.6,0.6,0.6,0.6v0.8c0,0,0,0.6-0.6,0.6h-7.2V76.8H79.9z"/>
		<path fill="#FFFFFF" d="M89,76.8c0,0,0.4,0,0.6,0.4l2.3,5.3l2.3-5.3c0.2-0.4,0.6-0.4,0.6-0.4H96c0,0,0.6,0,0.6,0.6v13.1
			c0,0,0,0.6-0.6,0.6h-0.8c0,0-0.6,0-0.6-0.6l0.2-10.1L93,84.9c-0.2,0.4-0.3,0.4-0.6,0.4h-0.9c-0.2,0-0.4,0-0.6-0.4L89,80.3
			l0.2,10.2c0,0,0,0.6-0.6,0.6h-0.8c0,0-0.6,0-0.6-0.6V77.3c0,0,0-0.6,0.6-0.6H89z"/>
		<path fill="#FFFFFF" d="M100.6,76.8c0.2,0,0.5,0.2,0.6,0.5l2.8,7.1h0.2l2.5-7.1c0.1-0.3,0.3-0.5,0.6-0.5h1c0.2,0,0.7,0,0.5,0.7
			L104,90.6c-0.2,0.5-0.3,0.5-0.6,0.5h-0.9c-0.2,0-0.7,0-0.5-0.7l1.3-3.6h-0.2c-0.2,0-0.3-0.1-0.4-0.3l-3.6-9
			c-0.2-0.6,0-0.7,0.4-0.7H100.6z"/>
		<path fill="#FFFFFF" d="M30.8,99.6c2.9,0,4.1,1.7,4.1,3.9c0,1.3-0.6,2.2-1.3,2.7c1.2,0.7,1.6,1.9,1.6,3.3c0,2.2-1.2,4.3-4.3,4.3
			h-3.8V99.6H30.8z M29.2,105.4h1.3c1.6,0,2.5-0.7,2.5-1.9c0-1.3-0.7-1.9-2.1-1.9h-1.6V105.4z M29.2,111.9H31c1.4,0,2.3-0.8,2.3-2.4
			c0-1.9-1.1-2.3-2.5-2.3h-1.7V111.9z"/>
		<path fill="#FFFFFF" d="M38.6,99.6c0,0,0.6,0,0.6,0.6v8.6c0,2.5,0.7,3.3,2.3,3.3c1.4,0,2.2-0.8,2.2-3.3v-8.6
			c0-0.6,0.6-0.6,0.6-0.6h0.8c0,0,0.6,0,0.6,0.6v8.5c0,2.8-1.2,5.3-4.2,5.3c-3,0-4.2-2.4-4.2-5.3v-8.5c0-0.6,0.6-0.6,0.6-0.6H38.6z"
			/>
		<path fill="#FFFFFF" d="M55.7,102.8c0,0.2,0,0.6-0.4,0.7l-0.7,0.2c-0.4,0.1-0.7,0-0.8-0.4c-0.3-1.3-0.9-1.8-2.1-1.8
			c-1.6,0-2.1,0.9-2.1,1.7c0,0.7,0.2,1.3,0.9,1.6l3.5,1.8c1.2,0.7,2,2,2,3.3c0,2.3-1.6,4.1-4.3,4.1c-1.7,0-4.2-1-4.2-4.2
			c0-0.6,0.6-0.6,0.6-0.6h0.8c0,0,0.6,0,0.6,0.6c0,1.8,1.2,2.2,2.2,2.2c1.7,0,2.3-1.2,2.3-2.1c0-0.7-0.3-1.3-1.3-1.8l-2.9-1.5
			c-1.9-1-2.1-2.5-2.1-3.5c0-2.3,1.9-3.7,4-3.7C54.1,99.4,55.5,100.8,55.7,102.8z"/>
		<path fill="#FFFFFF" d="M59.5,99.6c0,0,0.6,0,0.6,0.6v13.1c0,0.6-0.6,0.6-0.6,0.6h-0.8c0,0-0.6,0-0.6-0.6v-13.1
			c0-0.6,0.6-0.6,0.6-0.6H59.5z"/>
		<path fill="#FFFFFF" d="M64.5,99.6c0,0,0.4,0,0.6,0.4l4.3,10.3l-0.1-10.1c0,0,0-0.6,0.6-0.6h0.8c0,0,0.6,0,0.6,0.6v13.1
			c0,0,0,0.6-0.6,0.6h-1.2c0,0-0.4,0-0.6-0.4l-4.3-10.3l0.1,10.1c0,0,0,0.6-0.6,0.6h-0.8c0,0-0.6,0-0.6-0.6v-13.1c0,0,0-0.6,0.6-0.6
			H64.5z"/>
		<path fill="#FFFFFF" d="M81.4,99.6c0.6,0,0.6,0.6,0.6,0.6v0.8c0,0,0,0.6-0.6,0.6h-5.2v4.2h3.9c0.6,0,0.6,0.6,0.6,0.6v0.8
			c0,0,0,0.6-0.6,0.6h-3.9v4.3h5.2c0.6,0,0.6,0.6,0.6,0.6v0.8c0,0,0,0.6-0.6,0.6h-7.2V99.6H81.4z"/>
		<path fill="#FFFFFF" d="M92,102.8c0,0.2,0,0.6-0.4,0.7l-0.7,0.2c-0.4,0.1-0.7,0-0.8-0.4c-0.3-1.3-0.9-1.8-2.1-1.8
			c-1.6,0-2.1,0.9-2.1,1.7c0,0.7,0.2,1.3,0.9,1.6l3.5,1.8c1.2,0.7,2,2,2,3.3c0,2.3-1.6,4.1-4.3,4.1c-1.7,0-4.2-1-4.2-4.2
			c0-0.6,0.6-0.6,0.6-0.6h0.8c0,0,0.6,0,0.6,0.6c0,1.8,1.2,2.2,2.2,2.2c1.7,0,2.3-1.2,2.3-2.1c0-0.7-0.3-1.3-1.3-1.8l-2.9-1.5
			c-1.9-1-2.1-2.5-2.1-3.5c0-2.3,1.9-3.7,4-3.7C90.4,99.4,91.7,100.8,92,102.8z"/>
		<path fill="#FFFFFF" d="M101.9,102.8c0,0.2,0,0.6-0.4,0.7l-0.7,0.2c-0.4,0.1-0.7,0-0.8-0.4c-0.3-1.3-0.9-1.8-2.1-1.8
			c-1.6,0-2.1,0.9-2.1,1.7c0,0.7,0.2,1.3,0.9,1.6l3.5,1.8c1.2,0.7,2,2,2,3.3c0,2.3-1.6,4.1-4.3,4.1c-1.7,0-4.2-1-4.2-4.2
			c0-0.6,0.6-0.6,0.6-0.6h0.8c0,0,0.6,0,0.6,0.6c0,1.8,1.2,2.2,2.2,2.2c1.7,0,2.3-1.2,2.3-2.1c0-0.7-0.3-1.3-1.3-1.8l-2.9-1.5
			c-1.9-1-2.1-2.5-2.1-3.5c0-2.3,1.9-3.7,4-3.7C100.3,99.4,101.6,100.8,101.9,102.8z"/>
	</g>
</g>
</svg>
